STARTFONT 2.3
FONT -FontForge-Fontdiner Swanky-Book-R-Normal--9-90-72-72-P-56-ISO10646-1
SIZE 9 72 72  2
FONTBOUNDINGBOX 13 15 -2 -5
COMMENT "Generated by fontforge, http://fontforge.sourceforge.net"
COMMENT "Copyright (c) 2010 by Font Diner, Inc. All rights reserved."
STARTPROPERTIES 40
FOUNDRY "FontForge"
FAMILY_NAME "Fontdiner Swanky"
WEIGHT_NAME "Book"
SLANT "R"
SETWIDTH_NAME "Normal"
ADD_STYLE_NAME ""
PIXEL_SIZE 9
POINT_SIZE 90
RESOLUTION_X 72
RESOLUTION_Y 72
SPACING "P"
AVERAGE_WIDTH 56
CHARSET_REGISTRY "ISO10646"
CHARSET_ENCODING "1"
FONTNAME_REGISTRY ""
CHARSET_COLLECTIONS "ISO10646-1"
BITS_PER_PIXEL 2
FONT_NAME "FontdinerSwanky-Regular"
FACE_NAME "Fontdiner Swanky Regular"
COPYRIGHT "Copyright (c) 2010 by Font Diner, Inc. All rights reserved."
FONT_VERSION "1.001"
FONT_ASCENT 7
FONT_DESCENT 2
UNDERLINE_POSITION -1
UNDERLINE_THICKNESS 1
X_HEIGHT 4
CAP_HEIGHT 5
RAW_ASCENT 799
RAW_DESCENT 200
NORM_SPACE 3
RELATIVE_WEIGHT 40
RELATIVE_SETWIDTH 50
SUPERSCRIPT_X 0
SUPERSCRIPT_Y 4
SUPERSCRIPT_SIZE 5
SUBSCRIPT_X 0
SUBSCRIPT_Y 1
SUBSCRIPT_SIZE 5
AVG_LOWERCASE_WIDTH 56
AVG_UPPERCASE_WIDTH 69
ENDPROPERTIES
CHARS 231
STARTCHAR space
ENCODING 32
SWIDTH 320 0
DWIDTH 3 0
BBX 1 1 0 0
BITMAP
00
ENDCHAR
STARTCHAR exclam
ENCODING 33
SWIDTH 305 0
DWIDTH 3 0
BBX 3 8 0 0
BITMAP
24
78
74
74
70
60
50
A0
ENDCHAR
STARTCHAR quotedbl
ENCODING 34
SWIDTH 369 0
DWIDTH 3 0
BBX 4 3 0 3
BITMAP
AD
9C
44
ENDCHAR
STARTCHAR numbersign
ENCODING 35
SWIDTH 702 0
DWIDTH 6 0
BBX 6 6 0 0
BITMAP
18C0
BFF0
29C0
6AE0
7AE0
2140
ENDCHAR
STARTCHAR dollar
ENCODING 36
SWIDTH 545 0
DWIDTH 5 0
BBX 5 8 0 -1
BITMAP
1400
2C00
A640
A440
6F40
9280
AE40
0C00
ENDCHAR
STARTCHAR percent
ENCODING 37
SWIDTH 657 0
DWIDTH 6 0
BBX 6 8 0 -1
BITMAP
65C0
DA80
6740
0600
0940
1EB0
29A0
1000
ENDCHAR
STARTCHAR ampersand
ENCODING 38
SWIDTH 668 0
DWIDTH 6 0
BBX 7 8 0 -1
BITMAP
1900
7340
3A00
2D40
6B60
A2D4
7EE0
0140
ENDCHAR
STARTCHAR quotesingle
ENCODING 39
SWIDTH 177 0
DWIDTH 2 0
BBX 2 3 0 3
BITMAP
D0
90
40
ENDCHAR
STARTCHAR parenleft
ENCODING 40
SWIDTH 384 0
DWIDTH 3 0
BBX 3 9 0 -1
BITMAP
04
18
30
70
A0
70
70
34
08
ENDCHAR
STARTCHAR parenright
ENCODING 41
SWIDTH 375 0
DWIDTH 3 0
BBX 3 9 0 -1
BITMAP
40
60
28
1C
1C
1C
28
34
50
ENDCHAR
STARTCHAR asterisk
ENCODING 42
SWIDTH 640 0
DWIDTH 6 0
BBX 6 6 0 0
BITMAP
2100
2B80
AF90
AF90
2B40
2140
ENDCHAR
STARTCHAR plus
ENCODING 43
SWIDTH 607 0
DWIDTH 5 0
BBX 6 6 0 0
BITMAP
0900
0D00
AE90
AE80
0D00
0900
ENDCHAR
STARTCHAR comma
ENCODING 44
SWIDTH 226 0
DWIDTH 2 0
BBX 2 3 0 -2
BITMAP
50
B0
50
ENDCHAR
STARTCHAR hyphen
ENCODING 45
SWIDTH 549 0
DWIDTH 5 0
BBX 5 2 0 2
BITMAP
7A40
6A40
ENDCHAR
STARTCHAR period
ENCODING 46
SWIDTH 226 0
DWIDTH 2 0
BBX 2 2 0 -1
BITMAP
A0
A0
ENDCHAR
STARTCHAR slash
ENCODING 47
SWIDTH 600 0
DWIDTH 5 0
BBX 6 9 0 -1
BITMAP
0090
02D0
0380
0B00
1D00
2800
7400
E000
4000
ENDCHAR
STARTCHAR zero
ENCODING 48
SWIDTH 740 0
DWIDTH 7 0
BBX 7 6 0 0
BITMAP
1A40
79B0
A034
A034
74B0
1F90
ENDCHAR
STARTCHAR one
ENCODING 49
SWIDTH 503 0
DWIDTH 5 0
BBX 5 8 0 -1
BITMAP
0400
6D00
1D00
1D00
1D00
1C00
2E00
5540
ENDCHAR
STARTCHAR two
ENCODING 50
SWIDTH 638 0
DWIDTH 6 0
BBX 6 8 0 -1
BITMAP
4500
BAC0
60D0
41D0
1A50
7450
FFD0
0540
ENDCHAR
STARTCHAR three
ENCODING 51
SWIDTH 620 0
DWIDTH 6 0
BBX 6 8 0 -1
BITMAP
4500
BB80
51C0
06C0
0BC0
81D0
BB80
4500
ENDCHAR
STARTCHAR four
ENCODING 52
SWIDTH 606 0
DWIDTH 5 0
BBX 6 8 0 -1
BITMAP
0100
0300
0F00
2B00
A790
AB90
0700
1A40
ENDCHAR
STARTCHAR five
ENCODING 53
SWIDTH 610 0
DWIDTH 6 0
BBX 5 8 0 -1
BITMAP
0580
FAC0
A440
BB80
02C0
42C0
BF80
0400
ENDCHAR
STARTCHAR six
ENCODING 54
SWIDTH 619 0
DWIDTH 6 0
BBX 6 8 0 -1
BITMAP
0440
2FC0
7480
BB80
E0D0
E0D0
75C0
1A00
ENDCHAR
STARTCHAR seven
ENCODING 55
SWIDTH 598 0
DWIDTH 5 0
BBX 6 8 0 -1
BITMAP
5540
ABE0
52D0
0280
0340
0700
0A00
1540
ENDCHAR
STARTCHAR eight
ENCODING 56
SWIDTH 642 0
DWIDTH 6 0
BBX 6 8 0 -1
BITMAP
0500
3AC0
B0D0
75D0
7AD0
E0E0
B1E0
2A40
ENDCHAR
STARTCHAR nine
ENCODING 57
SWIDTH 610 0
DWIDTH 6 0
BBX 6 8 0 -1
BITMAP
1500
7680
E0D0
E1D0
7BD0
56C0
7B40
5500
ENDCHAR
STARTCHAR colon
ENCODING 58
SWIDTH 223 0
DWIDTH 2 0
BBX 2 4 0 -1
BITMAP
E0
50
90
A0
ENDCHAR
STARTCHAR semicolon
ENCODING 59
SWIDTH 228 0
DWIDTH 2 0
BBX 2 5 0 -2
BITMAP
A0
50
50
A0
50
ENDCHAR
STARTCHAR less
ENCODING 60
SWIDTH 563 0
DWIDTH 5 0
BBX 6 6 0 0
BITMAP
0080
0BD0
7E00
7800
0A00
0180
ENDCHAR
STARTCHAR equal
ENCODING 61
SWIDTH 531 0
DWIDTH 5 0
BBX 5 4 0 0
BITMAP
FF80
5540
FF80
0100
ENDCHAR
STARTCHAR greater
ENCODING 62
SWIDTH 576 0
DWIDTH 5 0
BBX 5 6 0 0
BITMAP
9000
B800
1F80
0780
2900
5000
ENDCHAR
STARTCHAR question
ENCODING 63
SWIDTH 592 0
DWIDTH 5 0
BBX 6 9 0 -1
BITMAP
4000
AB40
41D0
01D0
2B80
3800
1000
B000
1000
ENDCHAR
STARTCHAR at
ENCODING 64
SWIDTH 792 0
DWIDTH 7 0
BBX 8 7 0 -1
BITMAP
1AA0
6698
D89D
DAD9
9EDC
2464
0540
ENDCHAR
STARTCHAR A
ENCODING 65
SWIDTH 788 0
DWIDTH 7 0
BBX 10 8 -1 -2
BITMAP
07C000
01E000
02B000
067800
0AAC00
280E00
690B90
001940
ENDCHAR
STARTCHAR B
ENCODING 66
SWIDTH 774 0
DWIDTH 7 0
BBX 8 7 -1 -1
BITMAP
6FE8
0E0A
0E1A
0FF8
0A1E
0A6D
2E94
ENDCHAR
STARTCHAR C
ENCODING 67
SWIDTH 766 0
DWIDTH 7 0
BBX 7 8 0 -1
BITMAP
0004
1FE8
7424
B004
B000
7404
2E64
0540
ENDCHAR
STARTCHAR D
ENCODING 68
SWIDTH 833 0
DWIDTH 8 0
BBX 9 7 -1 -1
BITMAP
6FF900
074B00
074340
070340
070700
0BAD00
140000
ENDCHAR
STARTCHAR E
ENCODING 69
SWIDTH 781 0
DWIDTH 7 0
BBX 7 8 0 -1
BITMAP
0554
7D68
2C48
2D80
2E84
2C44
6EA4
5540
ENDCHAR
STARTCHAR F
ENCODING 70
SWIDTH 731 0
DWIDTH 7 0
BBX 7 8 0 -1
BITMAP
0150
BE64
2C54
2D84
2F80
2C40
2C00
5500
ENDCHAR
STARTCHAR G
ENCODING 71
SWIDTH 828 0
DWIDTH 7 0
BBX 8 8 0 -1
BITMAP
0004
2FF8
7424
B004
B0BD
7428
2EA8
0540
ENDCHAR
STARTCHAR H
ENCODING 72
SWIDTH 797 0
DWIDTH 7 0
BBX 9 8 -1 -1
BITMAP
005500
6A6D00
1D1D00
0D1D00
0FED00
0D1D00
0D2E40
2A4000
ENDCHAR
STARTCHAR I
ENCODING 73
SWIDTH 445 0
DWIDTH 4 0
BBX 4 8 0 -1
BITMAP
50
7D
2C
2C
2C
28
28
69
ENDCHAR
STARTCHAR J
ENCODING 74
SWIDTH 718 0
DWIDTH 6 0
BBX 8 8 -1 -1
BITMAP
0015
05B8
0034
0038
0028
6928
1834
0AE0
ENDCHAR
STARTCHAR K
ENCODING 75
SWIDTH 934 0
DWIDTH 8 0
BBX 10 8 0 -1
BITMAP
5A4000
2C2E40
2CA400
2ED000
2CB000
2C3800
6E5E00
001A90
ENDCHAR
STARTCHAR L
ENCODING 76
SWIDTH 712 0
DWIDTH 6 0
BBX 7 7 0 0
BITMAP
7E40
2C00
2C00
1C04
1C14
1C24
6AA4
ENDCHAR
STARTCHAR M
ENCODING 77
SWIDTH 1033 0
DWIDTH 9 0
BBX 10 8 0 -1
BITMAP
540550
2D0F40
2F1F00
2BBB00
16EB00
14CB00
295B40
550000
ENDCHAR
STARTCHAR N
ENCODING 78
SWIDTH 840 0
DWIDTH 8 0
BBX 8 7 0 0
BITMAP
5459
6E28
2F58
27D8
24F8
2478
BE58
ENDCHAR
STARTCHAR O
ENCODING 79
SWIDTH 808 0
DWIDTH 7 0
BBX 7 6 0 0
BITMAP
0640
39B4
B02C
B02C
7438
2EE0
ENDCHAR
STARTCHAR P
ENCODING 80
SWIDTH 746 0
DWIDTH 7 0
BBX 7 7 0 -1
BITMAP
AA90
2868
2964
2E40
2C00
7D00
5500
ENDCHAR
STARTCHAR Q
ENCODING 81
SWIDTH 789 0
DWIDTH 7 0
BBX 8 9 0 -3
BITMAP
1A90
7874
B028
B028
7474
1BD0
01D4
01E9
0100
ENDCHAR
STARTCHAR R
ENCODING 82
SWIDTH 826 0
DWIDTH 7 0
BBX 9 8 0 -2
BITMAP
AA9000
2C6800
2D6400
2DE000
2C7400
7E3800
551F80
002400
ENDCHAR
STARTCHAR S
ENCODING 83
SWIDTH 661 0
DWIDTH 6 0
BBX 6 7 0 -1
BITMAP
2A60
A0A0
BA40
1BD0
40E0
6AD0
4500
ENDCHAR
STARTCHAR T
ENCODING 84
SWIDTH 754 0
DWIDTH 7 0
BBX 7 6 0 0
BITMAP
BFB4
8714
4700
0700
0700
1B80
ENDCHAR
STARTCHAR U
ENCODING 85
SWIDTH 725 0
DWIDTH 7 0
BBX 7 7 0 -1
BITMAP
A874
7430
7430
7420
7820
2E90
0100
ENDCHAR
STARTCHAR V
ENCODING 86
SWIDTH 786 0
DWIDTH 7 0
BBX 9 8 -1 -1
BITMAP
014000
6E1A40
0E0900
0B0800
03A400
02E000
00C000
004000
ENDCHAR
STARTCHAR W
ENCODING 87
SWIDTH 1026 0
DWIDTH 9 0
BBX 11 7 -1 -1
BITMAP
6A41A4
1D2460
0B3C90
07AE80
03DB40
028700
004100
ENDCHAR
STARTCHAR X
ENCODING 88
SWIDTH 860 0
DWIDTH 8 0
BBX 9 7 -1 -1
BITMAP
154040
0B5E00
02E400
01F000
067800
6E1E00
001540
ENDCHAR
STARTCHAR Y
ENCODING 89
SWIDTH 848 0
DWIDTH 8 0
BBX 9 7 -1 -1
BITMAP
6A0500
0B4A40
02D800
00E000
00A000
00A000
01A900
ENDCHAR
STARTCHAR Z
ENCODING 90
SWIDTH 685 0
DWIDTH 6 0
BBX 6 6 0 0
BITMAP
5550
A6E0
43C0
0F10
2D20
6AA0
ENDCHAR
STARTCHAR bracketleft
ENCODING 91
SWIDTH 380 0
DWIDTH 3 0
BBX 4 9 0 -1
BITMAP
55
74
70
70
70
70
70
70
78
ENDCHAR
STARTCHAR backslash
ENCODING 92
SWIDTH 680 0
DWIDTH 6 0
BBX 6 9 0 -1
BITMAP
6000
B400
3C00
1D00
0B00
0380
01D0
00A0
0050
ENDCHAR
STARTCHAR bracketright
ENCODING 93
SWIDTH 371 0
DWIDTH 3 0
BBX 3 9 0 -1
BITMAP
54
6C
1C
1C
1C
1C
18
18
68
ENDCHAR
STARTCHAR asciicircum
ENCODING 94
SWIDTH 671 0
DWIDTH 6 0
BBX 6 6 0 2
BITMAP
0500
0F00
2E40
78C0
B060
5000
ENDCHAR
STARTCHAR underscore
ENCODING 95
SWIDTH 840 0
DWIDTH 8 0
BBX 8 2 0 -1
BITMAP
AAA9
FFFE
ENDCHAR
STARTCHAR grave
ENCODING 96
SWIDTH 707 0
DWIDTH 6 0
BBX 2 3 3 5
BITMAP
40
C0
50
ENDCHAR
STARTCHAR a
ENCODING 97
SWIDTH 572 0
DWIDTH 5 0
BBX 5 6 0 -1
BITMAP
2A40
6280
6A80
A280
6B80
0100
ENDCHAR
STARTCHAR b
ENCODING 98
SWIDTH 723 0
DWIDTH 7 0
BBX 8 9 -1 -2
BITMAP
5900
1E00
0E00
0E00
0EA4
0E1D
091D
1EB4
1500
ENDCHAR
STARTCHAR c
ENCODING 99
SWIDTH 589 0
DWIDTH 5 0
BBX 5 6 0 -1
BITMAP
0500
3AC0
B180
B000
7980
1500
ENDCHAR
STARTCHAR d
ENCODING 100
SWIDTH 713 0
DWIDTH 6 0
BBX 7 9 0 -2
BITMAP
01B4
0074
0070
05B0
79A0
A0A0
70A0
1AE0
0054
ENDCHAR
STARTCHAR e
ENCODING 101
SWIDTH 593 0
DWIDTH 5 0
BBX 5 5 0 -1
BITMAP
2F40
B1C0
BA80
7540
1500
ENDCHAR
STARTCHAR f
ENCODING 102
SWIDTH 507 0
DWIDTH 5 0
BBX 6 13 -1 -4
BITMAP
0190
0770
0A20
0A00
1F90
1B40
0700
0700
0340
0340
6340
7700
1900
ENDCHAR
STARTCHAR g
ENCODING 103
SWIDTH 606 0
DWIDTH 5 0
BBX 6 11 0 -5
BITMAP
0090
1AA0
7680
A0D0
A1C0
3A40
7A40
B5D0
D0A0
A5D0
1500
ENDCHAR
STARTCHAR h
ENCODING 104
SWIDTH 678 0
DWIDTH 6 0
BBX 8 9 -1 -1
BITMAP
5900
1E00
0D00
0D00
0E90
0D28
0D28
1E28
0029
ENDCHAR
STARTCHAR i
ENCODING 105
SWIDTH 393 0
DWIDTH 4 0
BBX 4 7 0 0
BITMAP
2C
18
68
2C
28
18
7D
ENDCHAR
STARTCHAR j
ENCODING 106
SWIDTH 385 0
DWIDTH 3 0
BBX 4 10 -1 -3
BITMAP
08
1D
05
1E
0B
07
07
07
A3
6A
ENDCHAR
STARTCHAR k
ENCODING 107
SWIDTH 749 0
DWIDTH 7 0
BBX 8 9 -1 -1
BITMAP
0400
5E00
0E69
0E64
0ED0
0EA0
0934
1E5D
0019
ENDCHAR
STARTCHAR l
ENCODING 108
SWIDTH 369 0
DWIDTH 3 0
BBX 5 9 -1 -1
BITMAP
6900
0E00
0E00
0E00
0D00
0900
0900
0900
1A40
ENDCHAR
STARTCHAR m
ENCODING 109
SWIDTH 990 0
DWIDTH 9 0
BBX 10 5 -1 0
BITMAP
6AA680
0E7DD0
092490
1A25E0
005400
ENDCHAR
STARTCHAR n
ENCODING 110
SWIDTH 643 0
DWIDTH 6 0
BBX 7 5 -1 0
BITMAP
6AA0
0E74
0928
1A24
0054
ENDCHAR
STARTCHAR o
ENCODING 111
SWIDTH 705 0
DWIDTH 6 0
BBX 7 5 0 0
BITMAP
0500
79E0
E074
A070
2A90
ENDCHAR
STARTCHAR p
ENCODING 112
SWIDTH 723 0
DWIDTH 7 0
BBX 8 7 -1 -2
BITMAP
6E50
0E68
0E0D
0E1D
0AA4
0A00
1F40
ENDCHAR
STARTCHAR q
ENCODING 113
SWIDTH 682 0
DWIDTH 6 0
BBX 7 7 0 -2
BITMAP
15E4
B5D0
D0D0
B5D0
1AD0
00D0
02E4
ENDCHAR
STARTCHAR r
ENCODING 114
SWIDTH 595 0
DWIDTH 5 0
BBX 6 6 0 0
BITMAP
0400
BFE0
2C50
2800
1800
6E40
ENDCHAR
STARTCHAR s
ENCODING 115
SWIDTH 533 0
DWIDTH 5 0
BBX 5 6 0 0
BITMAP
0400
6A40
A540
6F40
9680
AA40
ENDCHAR
STARTCHAR t
ENCODING 116
SWIDTH 422 0
DWIDTH 4 0
BBX 4 9 0 -1
BITMAP
18
24
FE
74
70
70
71
7D
04
ENDCHAR
STARTCHAR u
ENCODING 117
SWIDTH 614 0
DWIDTH 6 0
BBX 7 6 -1 -1
BITMAP
5450
2C74
1C30
1C30
0EB4
0010
ENDCHAR
STARTCHAR v
ENCODING 118
SWIDTH 639 0
DWIDTH 6 0
BBX 8 6 -1 -1
BITMAP
6940
1D79
0A60
0790
0280
0040
ENDCHAR
STARTCHAR w
ENCODING 119
SWIDTH 805 0
DWIDTH 7 0
BBX 9 5 -1 0
BITMAP
6D4640
1DA600
0AF800
077800
021400
ENDCHAR
STARTCHAR x
ENCODING 120
SWIDTH 717 0
DWIDTH 6 0
BBX 7 6 0 -1
BITMAP
6954
2DD0
0B40
1A80
69E4
0140
ENDCHAR
STARTCHAR y
ENCODING 121
SWIDTH 655 0
DWIDTH 6 0
BBX 6 9 0 -4
BITMAP
9140
75E0
B0E0
B4E0
2AD0
00D0
10D0
A1C0
2B40
ENDCHAR
STARTCHAR z
ENCODING 122
SWIDTH 549 0
DWIDTH 5 0
BBX 5 5 0 0
BITMAP
6A80
9740
4E00
2C80
BE80
ENDCHAR
STARTCHAR braceleft
ENCODING 123
SWIDTH 708 0
DWIDTH 6 0
BBX 4 9 1 -1
BITMAP
15
2D
28
28
78
68
28
28
2D
ENDCHAR
STARTCHAR bar
ENCODING 124
SWIDTH 304 0
DWIDTH 3 0
BBX 2 9 0 -1
BITMAP
60
70
70
70
70
70
70
70
60
ENDCHAR
STARTCHAR braceright
ENCODING 125
SWIDTH 517 0
DWIDTH 5 0
BBX 5 9 0 -1
BITMAP
5400
1D00
0D00
0D00
0E40
0E00
0D00
0D00
2D00
ENDCHAR
STARTCHAR asciitilde
ENCODING 126
SWIDTH 466 0
DWIDTH 4 0
BBX 4 2 0 2
BITMAP
A5
AF
ENDCHAR
STARTCHAR uni00A0
ENCODING 160
SWIDTH 320 0
DWIDTH 3 0
BBX 1 1 0 0
BITMAP
00
ENDCHAR
STARTCHAR exclamdown
ENCODING 161
SWIDTH 305 0
DWIDTH 3 0
BBX 3 8 0 -3
BITMAP
28
14
34
30
70
B0
B0
A0
ENDCHAR
STARTCHAR cent
ENCODING 162
SWIDTH 417 0
DWIDTH 4 0
BBX 4 8 0 -1
BITMAP
14
28
69
C5
C0
A5
28
28
ENDCHAR
STARTCHAR sterling
ENCODING 163
SWIDTH 658 0
DWIDTH 6 0
BBX 6 7 0 -1
BITMAP
1BA0
38A0
FE50
6910
AE60
3EB0
1550
ENDCHAR
STARTCHAR currency
ENCODING 164
SWIDTH 358 0
DWIDTH 3 0
BBX 3 3 0 2
BITMAP
98
A8
AC
ENDCHAR
STARTCHAR yen
ENCODING 165
SWIDTH 796 0
DWIDTH 7 0
BBX 8 6 -1 0
BITMAP
6915
0A18
0290
06E0
06E0
06E4
ENDCHAR
STARTCHAR brokenbar
ENCODING 166
SWIDTH 304 0
DWIDTH 3 0
BBX 2 9 0 -1
BITMAP
60
70
70
60
00
60
70
70
60
ENDCHAR
STARTCHAR section
ENCODING 167
SWIDTH 646 0
DWIDTH 6 0
BBX 6 10 0 -2
BITMAP
2A40
61C0
B440
3F40
66D0
B4D0
3F80
07D0
60D0
6A80
ENDCHAR
STARTCHAR dieresis
ENCODING 168
SWIDTH 708 0
DWIDTH 6 0
BBX 3 2 2 7
BITMAP
54
54
ENDCHAR
STARTCHAR copyright
ENCODING 169
SWIDTH 700 0
DWIDTH 6 0
BBX 7 6 0 0
BITMAP
2A90
9A70
D824
D960
65A0
1A40
ENDCHAR
STARTCHAR ordfeminine
ENCODING 170
SWIDTH 399 0
DWIDTH 4 0
BBX 4 4 0 3
BITMAP
A8
AC
EC
19
ENDCHAR
STARTCHAR guillemotleft
ENCODING 171
SWIDTH 424 0
DWIDTH 4 0
BBX 4 4 0 0
BITMAP
26
AC
A9
22
ENDCHAR
STARTCHAR logicalnot
ENCODING 172
SWIDTH 541 0
DWIDTH 5 0
BBX 5 5 0 0
BITMAP
4040
BA80
9680
0180
0140
ENDCHAR
STARTCHAR sfthyphen
ENCODING 173
SWIDTH 530 0
DWIDTH 5 0
BBX 5 2 0 2
BITMAP
FA80
AA40
ENDCHAR
STARTCHAR registered
ENCODING 174
SWIDTH 700 0
DWIDTH 6 0
BBX 7 6 0 0
BITMAP
2A80
A570
CA64
C524
65A0
1A40
ENDCHAR
STARTCHAR macron
ENCODING 175
SWIDTH 705 0
DWIDTH 6 0
BBX 3 2 2 6
BITMAP
68
54
ENDCHAR
STARTCHAR degree
ENCODING 176
SWIDTH 364 0
DWIDTH 3 0
BBX 3 3 0 4
BITMAP
10
68
64
ENDCHAR
STARTCHAR plusminus
ENCODING 177
SWIDTH 607 0
DWIDTH 5 0
BBX 6 6 0 0
BITMAP
0900
5E40
BFD0
0D00
6940
BF80
ENDCHAR
STARTCHAR twosuperior
ENCODING 178
SWIDTH 440 0
DWIDTH 4 0
BBX 4 5 0 3
BITMAP
69
56
59
B6
A9
ENDCHAR
STARTCHAR threesuperior
ENCODING 179
SWIDTH 442 0
DWIDTH 4 0
BBX 4 5 0 3
BITMAP
58
9A
1E
4A
A9
ENDCHAR
STARTCHAR acute
ENCODING 180
SWIDTH 694 0
DWIDTH 6 0
BBX 2 3 2 6
BITMAP
20
70
10
ENDCHAR
STARTCHAR mu
ENCODING 181
SWIDTH 1000 0
DWIDTH 9 0
BBX 7 8 0 -3
BITMAP
5450
2870
2870
2860
2EE4
2810
2800
0400
ENDCHAR
STARTCHAR paragraph
ENCODING 182
SWIDTH 782 0
DWIDTH 7 0
BBX 7 7 0 -1
BITMAP
6BE4
D690
AB90
0690
0690
0BE4
1500
ENDCHAR
STARTCHAR periodcentered
ENCODING 183
SWIDTH 226 0
DWIDTH 2 0
BBX 2 2 0 2
BITMAP
B0
50
ENDCHAR
STARTCHAR cedilla
ENCODING 184
SWIDTH 780 0
DWIDTH 7 0
BBX 3 3 2 -2
BITMAP
60
28
60
ENDCHAR
STARTCHAR onesuperior
ENCODING 185
SWIDTH 390 0
DWIDTH 4 0
BBX 3 5 0 3
BITMAP
64
28
28
18
28
ENDCHAR
STARTCHAR ordmasculine
ENCODING 186
SWIDTH 449 0
DWIDTH 4 0
BBX 4 3 0 4
BITMAP
69
C3
AA
ENDCHAR
STARTCHAR guillemotright
ENCODING 187
SWIDTH 415 0
DWIDTH 4 0
BBX 4 4 0 0
BITMAP
98
6A
69
88
ENDCHAR
STARTCHAR onequarter
ENCODING 188
SWIDTH 918 0
DWIDTH 8 0
BBX 8 9 0 -1
BITMAP
6409
281C
2834
18A0
29C9
029D
077E
0D5E
1819
ENDCHAR
STARTCHAR onehalf
ENCODING 189
SWIDTH 1007 0
DWIDTH 9 0
BBX 9 10 0 -2
BITMAP
640900
281C00
283400
18A000
29D100
029A80
071180
0D0A80
182E80
000140
ENDCHAR
STARTCHAR threequarters
ENCODING 190
SWIDTH 936 0
DWIDTH 8 0
BBX 8 9 0 -1
BITMAP
5809
9A1D
1E28
4A70
A9D5
029D
037E
095A
181A
ENDCHAR
STARTCHAR questiondown
ENCODING 191
SWIDTH 568 0
DWIDTH 5 0
BBX 5 8 0 -3
BITMAP
03C0
0140
0700
7F00
E000
E040
7A80
0040
ENDCHAR
STARTCHAR Agrave
ENCODING 192
SWIDTH 788 0
DWIDTH 7 0
BBX 10 12 -1 -2
BITMAP
004000
018000
008000
000000
07C000
01E000
02B000
067800
0AAC00
280E00
690B90
001940
ENDCHAR
STARTCHAR Aacute
ENCODING 193
SWIDTH 788 0
DWIDTH 7 0
BBX 10 11 -1 -2
BITMAP
005000
00D000
004000
07C000
01E000
02B000
067800
0AAC00
280E00
690B90
001940
ENDCHAR
STARTCHAR Acircumflex
ENCODING 194
SWIDTH 788 0
DWIDTH 7 0
BBX 10 10 -1 -2
BITMAP
01D000
026000
07C000
01E000
02B000
067800
0AAC00
280E00
690B90
001940
ENDCHAR
STARTCHAR Atilde
ENCODING 195
SWIDTH 788 0
DWIDTH 7 0
BBX 10 10 -1 -2
BITMAP
02A000
015000
07C000
01E000
02B000
067800
0AAC00
280E00
690B90
001940
ENDCHAR
STARTCHAR Adieresis
ENCODING 196
SWIDTH 788 0
DWIDTH 7 0
BBX 10 10 -1 -2
BITMAP
011000
011000
07C000
01E000
02B000
067800
0AAC00
280E00
690B90
001940
ENDCHAR
STARTCHAR Aring
ENCODING 197
SWIDTH 788 0
DWIDTH 7 0
BBX 10 10 -1 -2
BITMAP
008000
019000
07D000
01E000
02B000
067800
0AAC00
280E00
690B90
001940
ENDCHAR
STARTCHAR AE
ENCODING 198
SWIDTH 1019 0
DWIDTH 9 0
BBX 11 8 -2 -1
BITMAP
005554
01FE58
00AD48
019D80
035FC4
0AAD48
1C2EA8
555550
ENDCHAR
STARTCHAR Ccedilla
ENCODING 199
SWIDTH 766 0
DWIDTH 7 0
BBX 7 10 0 -3
BITMAP
0004
1FE8
7424
B004
B000
7404
2E64
0640
0640
0640
ENDCHAR
STARTCHAR Egrave
ENCODING 200
SWIDTH 781 0
DWIDTH 7 0
BBX 7 11 0 -1
BITMAP
0100
0700
0200
0554
7D68
2C48
2D80
2E84
2C44
6EA4
5540
ENDCHAR
STARTCHAR Eacute
ENCODING 201
SWIDTH 781 0
DWIDTH 7 0
BBX 7 10 0 -1
BITMAP
0140
0240
0554
7D68
2C48
2D80
2E84
2C44
6EA4
5540
ENDCHAR
STARTCHAR Ecircumflex
ENCODING 202
SWIDTH 781 0
DWIDTH 7 0
BBX 7 10 0 -1
BITMAP
0740
0980
0554
7D68
2C48
2D80
2E84
2C44
6EA4
5540
ENDCHAR
STARTCHAR Edieresis
ENCODING 203
SWIDTH 781 0
DWIDTH 7 0
BBX 7 10 0 -1
BITMAP
0440
0440
0554
7D68
2C48
2D80
2E84
2C44
6EA4
5540
ENDCHAR
STARTCHAR Igrave
ENCODING 204
SWIDTH 445 0
DWIDTH 4 0
BBX 4 11 0 -1
BITMAP
10
24
14
50
7D
2C
2C
2C
28
28
69
ENDCHAR
STARTCHAR Iacute
ENCODING 205
SWIDTH 445 0
DWIDTH 4 0
BBX 4 10 0 -1
BITMAP
08
1C
54
7D
2C
2C
2C
28
28
69
ENDCHAR
STARTCHAR Icircumflex
ENCODING 206
SWIDTH 445 0
DWIDTH 4 0
BBX 4 10 0 -1
BITMAP
2C
65
50
7D
2C
2C
2C
28
28
69
ENDCHAR
STARTCHAR Idieresis
ENCODING 207
SWIDTH 445 0
DWIDTH 4 0
BBX 4 9 0 -1
BITMAP
14
65
7D
2C
2C
2C
28
28
69
ENDCHAR
STARTCHAR Eth
ENCODING 208
SWIDTH 1000 0
DWIDTH 9 0
BBX 9 7 0 -1
BITMAP
6FF900
074740
1B5380
2B9380
070740
0BAD00
140000
ENDCHAR
STARTCHAR Ntilde
ENCODING 209
SWIDTH 840 0
DWIDTH 8 0
BBX 8 9 0 0
BITMAP
0680
0540
5459
6E28
2F58
27D8
24F8
2478
BE58
ENDCHAR
STARTCHAR Ograve
ENCODING 210
SWIDTH 808 0
DWIDTH 7 0
BBX 7 9 0 0
BITMAP
0100
0340
0140
0640
39B4
B02C
B02C
7438
2EE0
ENDCHAR
STARTCHAR Oacute
ENCODING 211
SWIDTH 808 0
DWIDTH 7 0
BBX 7 8 0 0
BITMAP
0140
0240
0640
39B4
B02C
B02C
7438
2EE0
ENDCHAR
STARTCHAR Ocircumflex
ENCODING 212
SWIDTH 808 0
DWIDTH 7 0
BBX 7 8 0 0
BITMAP
0340
0980
0640
39B4
B02C
B02C
7438
2EE0
ENDCHAR
STARTCHAR Otilde
ENCODING 213
SWIDTH 808 0
DWIDTH 7 0
BBX 7 8 0 0
BITMAP
0680
0540
0640
39B4
B02C
B02C
7438
2EE0
ENDCHAR
STARTCHAR Odieresis
ENCODING 214
SWIDTH 808 0
DWIDTH 7 0
BBX 7 8 0 0
BITMAP
0440
0440
0640
39B4
B02C
B02C
7438
2EE0
ENDCHAR
STARTCHAR multiply
ENCODING 215
SWIDTH 556 0
DWIDTH 5 0
BBX 5 5 0 1
BITMAP
1000
B780
2F00
3F00
A280
ENDCHAR
STARTCHAR Oslash
ENCODING 216
SWIDTH 808 0
DWIDTH 7 0
BBX 7 8 0 -1
BITMAP
0010
06B0
39F4
B2EC
B36C
7A38
2FE0
2400
ENDCHAR
STARTCHAR Ugrave
ENCODING 217
SWIDTH 725 0
DWIDTH 7 0
BBX 7 10 0 -1
BITMAP
0100
0700
0200
A874
7430
7430
7420
7820
2E90
0100
ENDCHAR
STARTCHAR Uacute
ENCODING 218
SWIDTH 725 0
DWIDTH 7 0
BBX 7 10 0 -1
BITMAP
0200
0300
0100
A874
7430
7430
7420
7820
2E90
0100
ENDCHAR
STARTCHAR Ucircumflex
ENCODING 219
SWIDTH 725 0
DWIDTH 7 0
BBX 7 9 0 -1
BITMAP
0740
0980
A874
7430
7430
7420
7820
2E90
0100
ENDCHAR
STARTCHAR Udieresis
ENCODING 220
SWIDTH 725 0
DWIDTH 7 0
BBX 7 9 0 -1
BITMAP
0440
0440
A874
7430
7430
7420
7820
2E90
0100
ENDCHAR
STARTCHAR Yacute
ENCODING 221
SWIDTH 848 0
DWIDTH 8 0
BBX 9 10 -1 -1
BITMAP
001400
003000
001000
6A0500
0B4A40
02D800
00E000
00A000
00A000
01A900
ENDCHAR
STARTCHAR Thorn
ENCODING 222
SWIDTH 745 0
DWIDTH 7 0
BBX 7 7 0 -1
BITMAP
A900
2E50
2968
2868
2E50
7D00
5500
ENDCHAR
STARTCHAR germandbls
ENCODING 223
SWIDTH 986 0
DWIDTH 9 0
BBX 10 13 -1 -4
BITMAP
005000
02A800
060900
0A0900
1A0D00
1B2800
072800
071F80
0352E0
0369A0
635140
770000
180000
ENDCHAR
STARTCHAR agrave
ENCODING 224
SWIDTH 572 0
DWIDTH 5 0
BBX 5 9 0 -1
BITMAP
0100
0700
0200
2A40
6280
6A80
A280
6B80
0100
ENDCHAR
STARTCHAR aacute
ENCODING 225
SWIDTH 572 0
DWIDTH 5 0
BBX 5 9 0 -1
BITMAP
0200
0600
0000
2A40
6280
6A80
A280
6B80
0100
ENDCHAR
STARTCHAR acircumflex
ENCODING 226
SWIDTH 572 0
DWIDTH 5 0
BBX 5 9 0 -1
BITMAP
0A00
1540
0000
2A40
6280
6A80
A280
6B80
0100
ENDCHAR
STARTCHAR atilde
ENCODING 227
SWIDTH 572 0
DWIDTH 5 0
BBX 5 8 0 -1
BITMAP
1A40
1500
2A40
6280
6A80
A280
6B80
0100
ENDCHAR
STARTCHAR adieresis
ENCODING 228
SWIDTH 572 0
DWIDTH 5 0
BBX 5 8 0 -1
BITMAP
1500
1500
2A40
6280
6A80
A280
6B80
0100
ENDCHAR
STARTCHAR aring
ENCODING 229
SWIDTH 572 0
DWIDTH 5 0
BBX 5 8 0 -1
BITMAP
0500
0A00
2B40
6280
6A80
A280
6B80
0100
ENDCHAR
STARTCHAR ae
ENCODING 230
SWIDTH 1022 0
DWIDTH 9 0
BBX 9 6 0 -1
BITMAP
6A1A00
A2F680
6BFAC0
D3F540
6B9900
010000
ENDCHAR
STARTCHAR ccedilla
ENCODING 231
SWIDTH 589 0
DWIDTH 5 0
BBX 5 8 0 -3
BITMAP
0500
3AC0
B180
B000
7980
1D00
0A00
0A00
ENDCHAR
STARTCHAR egrave
ENCODING 232
SWIDTH 593 0
DWIDTH 5 0
BBX 5 9 0 -1
BITMAP
0100
0600
0200
0000
2F40
B1C0
BA80
7540
1500
ENDCHAR
STARTCHAR eacute
ENCODING 233
SWIDTH 593 0
DWIDTH 5 0
BBX 5 8 0 -1
BITMAP
0200
0600
0400
2F40
B1C0
BA80
7540
1500
ENDCHAR
STARTCHAR ecircumflex
ENCODING 234
SWIDTH 593 0
DWIDTH 5 0
BBX 5 8 0 -1
BITMAP
0A00
1540
0000
2F40
B1C0
BA80
7540
1500
ENDCHAR
STARTCHAR edieresis
ENCODING 235
SWIDTH 593 0
DWIDTH 5 0
BBX 5 7 0 -1
BITMAP
0500
0500
2F40
B1C0
BA80
7540
1500
ENDCHAR
STARTCHAR igrave
ENCODING 236
SWIDTH 393 0
DWIDTH 4 0
BBX 4 8 0 0
BITMAP
10
24
14
68
2C
28
18
7D
ENDCHAR
STARTCHAR iacute
ENCODING 237
SWIDTH 393 0
DWIDTH 4 0
BBX 4 8 0 0
BITMAP
08
18
00
68
2C
28
18
7D
ENDCHAR
STARTCHAR icircumflex
ENCODING 238
SWIDTH 393 0
DWIDTH 4 0
BBX 4 7 0 0
BITMAP
28
55
68
2C
28
18
7D
ENDCHAR
STARTCHAR idieresis
ENCODING 239
SWIDTH 393 0
DWIDTH 4 0
BBX 4 7 0 0
BITMAP
15
15
68
2C
28
18
7D
ENDCHAR
STARTCHAR eth
ENCODING 240
SWIDTH 672 0
DWIDTH 6 0
BBX 6 8 0 -1
BITMAP
0990
0B80
19C0
15E0
B5F0
D070
E0A0
2A80
ENDCHAR
STARTCHAR ntilde
ENCODING 241
SWIDTH 643 0
DWIDTH 6 0
BBX 7 7 -1 0
BITMAP
0290
0150
6AA0
0E74
0928
1A24
0054
ENDCHAR
STARTCHAR ograve
ENCODING 242
SWIDTH 705 0
DWIDTH 6 0
BBX 7 8 0 0
BITMAP
0100
0700
0200
0500
79E0
E074
A070
2A90
ENDCHAR
STARTCHAR oacute
ENCODING 243
SWIDTH 705 0
DWIDTH 6 0
BBX 7 7 0 0
BITMAP
0200
0700
0500
79E0
E074
A070
2A90
ENDCHAR
STARTCHAR ocircumflex
ENCODING 244
SWIDTH 705 0
DWIDTH 6 0
BBX 7 7 0 0
BITMAP
0700
0980
0500
79E0
E074
A070
2A90
ENDCHAR
STARTCHAR otilde
ENCODING 245
SWIDTH 705 0
DWIDTH 6 0
BBX 7 7 0 0
BITMAP
0A80
0540
0500
79E0
E074
A070
2A90
ENDCHAR
STARTCHAR odieresis
ENCODING 246
SWIDTH 705 0
DWIDTH 6 0
BBX 7 7 0 0
BITMAP
0440
0440
0500
79E0
E074
A070
2A90
ENDCHAR
STARTCHAR divide
ENCODING 247
SWIDTH 504 0
DWIDTH 5 0
BBX 5 5 0 0
BITMAP
1D00
5400
FF40
1400
1C00
ENDCHAR
STARTCHAR oslash
ENCODING 248
SWIDTH 705 0
DWIDTH 6 0
BBX 7 7 0 -1
BITMAP
0040
05D0
7AE0
E774
AA70
2E90
2400
ENDCHAR
STARTCHAR ugrave
ENCODING 249
SWIDTH 614 0
DWIDTH 6 0
BBX 7 9 -1 -1
BITMAP
0100
0340
0140
5450
2C74
1C30
1C30
0EB4
0010
ENDCHAR
STARTCHAR uacute
ENCODING 250
SWIDTH 614 0
DWIDTH 6 0
BBX 7 8 -1 -1
BITMAP
0140
0280
5550
2C74
1C30
1C30
0EB4
0010
ENDCHAR
STARTCHAR ucircumflex
ENCODING 251
SWIDTH 614 0
DWIDTH 6 0
BBX 7 8 -1 -1
BITMAP
0380
0590
5450
2C74
1C30
1C30
0EB4
0010
ENDCHAR
STARTCHAR udieresis
ENCODING 252
SWIDTH 614 0
DWIDTH 6 0
BBX 7 8 -1 -1
BITMAP
0540
0540
5450
2C74
1C30
1C30
0EB4
0010
ENDCHAR
STARTCHAR yacute
ENCODING 253
SWIDTH 655 0
DWIDTH 6 0
BBX 6 12 0 -4
BITMAP
0500
0A00
0000
9140
75E0
B0E0
B4E0
2AD0
00D0
10D0
A1C0
2B40
ENDCHAR
STARTCHAR thorn
ENCODING 254
SWIDTH 734 0
DWIDTH 7 0
BBX 7 11 0 -4
BITMAP
5000
7800
2800
2800
2EA0
2838
2828
2EB0
2800
2C00
6900
ENDCHAR
STARTCHAR ydieresis
ENCODING 255
SWIDTH 655 0
DWIDTH 6 0
BBX 6 11 0 -4
BITMAP
1500
1500
9140
75E0
B0E0
B4E0
2AD0
00D0
10D0
A1C0
2B40
ENDCHAR
STARTCHAR dotlessi
ENCODING 305
SWIDTH 393 0
DWIDTH 4 0
BBX 4 5 0 0
BITMAP
68
2C
28
18
7D
ENDCHAR
STARTCHAR Lslash
ENCODING 321
SWIDTH 713 0
DWIDTH 6 0
BBX 7 7 0 0
BITMAP
7E40
2C00
2F40
7D04
6C14
1C24
6AA4
ENDCHAR
STARTCHAR lslash
ENCODING 322
SWIDTH 365 0
DWIDTH 3 0
BBX 5 9 -1 -1
BITMAP
6900
0E00
0D00
0F80
7E00
1D00
0900
0900
1A00
ENDCHAR
STARTCHAR OE
ENCODING 338
SWIDTH 1195 0
DWIDTH 11 0
BBX 11 8 0 -1
BITMAP
000554
01BD64
2AAC54
A0BD80
E0BF80
75FC50
1AAEA0
005540
ENDCHAR
STARTCHAR oe
ENCODING 339
SWIDTH 1087 0
DWIDTH 10 0
BBX 10 5 0 -1
BITMAP
6A9F80
A0F4D0
A0BA90
6AB940
000500
ENDCHAR
STARTCHAR Scaron
ENCODING 352
SWIDTH 661 0
DWIDTH 6 0
BBX 6 10 0 -1
BITMAP
1F40
0500
0000
2A60
A0A0
BA40
1BD0
40E0
6AD0
4500
ENDCHAR
STARTCHAR scaron
ENCODING 353
SWIDTH 533 0
DWIDTH 5 0
BBX 5 9 0 0
BITMAP
1000
2A00
0800
0400
6A40
A540
6F40
9680
AA40
ENDCHAR
STARTCHAR Ydieresis
ENCODING 376
SWIDTH 848 0
DWIDTH 8 0
BBX 9 9 -1 -1
BITMAP
005000
005000
6A0500
0B4A40
02D800
00E000
00A000
00A000
01A900
ENDCHAR
STARTCHAR Zcaron
ENCODING 381
SWIDTH 685 0
DWIDTH 6 0
BBX 6 9 0 0
BITMAP
0040
0A40
0200
5550
A6E0
43C0
0F10
2D20
6AA0
ENDCHAR
STARTCHAR zcaron
ENCODING 382
SWIDTH 549 0
DWIDTH 5 0
BBX 5 8 0 0
BITMAP
1000
1A00
0800
6A80
9740
4E00
2C80
BE80
ENDCHAR
STARTCHAR circumflex
ENCODING 710
SWIDTH 714 0
DWIDTH 6 0
BBX 3 2 2 6
BITMAP
74
98
ENDCHAR
STARTCHAR caron
ENCODING 711
SWIDTH 714 0
DWIDTH 6 0
BBX 3 3 2 6
BITMAP
40
A8
20
ENDCHAR
STARTCHAR breve
ENCODING 728
SWIDTH 715 0
DWIDTH 6 0
BBX 3 3 2 6
BITMAP
44
A8
10
ENDCHAR
STARTCHAR dotaccent
ENCODING 729
SWIDTH 708 0
DWIDTH 6 0
BBX 1 2 3 7
BITMAP
40
40
ENDCHAR
STARTCHAR ring
ENCODING 730
SWIDTH 704 0
DWIDTH 6 0
BBX 3 3 2 6
BITMAP
10
64
10
ENDCHAR
STARTCHAR ogonek
ENCODING 731
SWIDTH 988 0
DWIDTH 9 0
BBX 3 2 3 -1
BITMAP
80
F8
ENDCHAR
STARTCHAR tilde
ENCODING 732
SWIDTH 707 0
DWIDTH 6 0
BBX 3 2 2 6
BITMAP
A8
54
ENDCHAR
STARTCHAR hungarumlaut
ENCODING 733
SWIDTH 671 0
DWIDTH 6 0
BBX 3 3 2 6
BITMAP
94
E8
40
ENDCHAR
STARTCHAR endash
ENCODING 8211
SWIDTH 576 0
DWIDTH 5 0
BBX 5 2 0 2
BITMAP
7F80
1540
ENDCHAR
STARTCHAR emdash
ENCODING 8212
SWIDTH 993 0
DWIDTH 9 0
BBX 9 2 0 2
BITMAP
7FFF40
155500
ENDCHAR
STARTCHAR quoteleft
ENCODING 8216
SWIDTH 261 0
DWIDTH 2 0
BBX 2 3 0 4
BITMAP
10
70
A0
ENDCHAR
STARTCHAR quoteright
ENCODING 8217
SWIDTH 301 0
DWIDTH 3 0
BBX 3 3 0 4
BITMAP
10
74
A0
ENDCHAR
STARTCHAR quotesinglbase
ENCODING 8218
SWIDTH 332 0
DWIDTH 3 0
BBX 3 3 0 -1
BITMAP
24
70
50
ENDCHAR
STARTCHAR quotedblleft
ENCODING 8220
SWIDTH 477 0
DWIDTH 4 0
BBX 4 3 0 4
BITMAP
11
77
AA
ENDCHAR
STARTCHAR quotedblright
ENCODING 8221
SWIDTH 477 0
DWIDTH 4 0
BBX 4 3 0 4
BITMAP
11
7B
A9
ENDCHAR
STARTCHAR quotedblbase
ENCODING 8222
SWIDTH 477 0
DWIDTH 4 0
BBX 4 3 0 -1
BITMAP
66
AA
55
ENDCHAR
STARTCHAR dagger
ENCODING 8224
SWIDTH 487 0
DWIDTH 4 0
BBX 4 11 0 -3
BITMAP
18
1C
6D
BF
1C
1C
1C
1C
1C
18
18
ENDCHAR
STARTCHAR daggerdbl
ENCODING 8225
SWIDTH 497 0
DWIDTH 4 0
BBX 5 11 0 -3
BITMAP
1800
1C00
6D00
BF00
1D00
BF40
1D00
1C00
1C00
1800
1800
ENDCHAR
STARTCHAR bullet
ENCODING 8226
SWIDTH 275 0
DWIDTH 2 0
BBX 3 3 0 2
BITMAP
60
F4
60
ENDCHAR
STARTCHAR ellipsis
ENCODING 8230
SWIDTH 787 0
DWIDTH 7 0
BBX 7 2 0 -1
BITMAP
A258
A668
ENDCHAR
STARTCHAR perthousand
ENCODING 8240
SWIDTH 888 0
DWIDTH 8 0
BBX 9 8 0 -1
BITMAP
618000
DA8000
A70000
0A0000
0D4500
1EBA40
25AA00
100000
ENDCHAR
STARTCHAR guilsinglleft
ENCODING 8249
SWIDTH 234 0
DWIDTH 2 0
BBX 2 4 0 0
BITMAP
20
90
A0
20
ENDCHAR
STARTCHAR guilsinglright
ENCODING 8250
SWIDTH 223 0
DWIDTH 2 0
BBX 2 4 0 0
BITMAP
80
60
60
80
ENDCHAR
STARTCHAR fraction
ENCODING 8260
SWIDTH 600 0
DWIDTH 5 0
BBX 6 9 0 -1
BITMAP
0040
01D0
02C0
0740
0E00
2C00
3400
B000
D000
ENDCHAR
STARTCHAR Euro
ENCODING 8364
SWIDTH 590 0
DWIDTH 5 0
BBX 7 6 -1 0
BITMAP
0690
0D34
7E50
2E80
0E60
0190
ENDCHAR
STARTCHAR trademark
ENCODING 8482
SWIDTH 624 0
DWIDTH 6 0
BBX 6 3 0 3
BITMAP
9000
8A90
9550
ENDCHAR
STARTCHAR minus
ENCODING 8722
SWIDTH 549 0
DWIDTH 5 0
BBX 5 2 0 2
BITMAP
BA80
AA40
ENDCHAR
STARTCHAR fi
ENCODING 64257
SWIDTH 757 0
DWIDTH 7 0
BBX 8 13 -1 -4
BITMAP
0190
0768
0A2C
0A14
1FA8
1B6C
071C
071C
076E
0340
6340
7700
1900
ENDCHAR
STARTCHAR fl
ENCODING 64258
SWIDTH 776 0
DWIDTH 7 0
BBX 8 13 -1 -4
BITMAP
01A0
0728
0A1C
0A1D
1F9D
1B5D
070D
070C
074C
036A
6340
7700
1900
ENDCHAR
STARTCHAR .notdef
ENCODING -1
SWIDTH 320 0
DWIDTH 3 0
BBX 1 1 0 0
BITMAP
00
ENDCHAR
ENDFONT
